<svg width="14" height="12" viewBox="0 0 14 12" fill="none" xmlns="http://www.w3.org/2000/svg">
<path d="M3.38103 0.253906C2.51632 0.253906 1.64916 0.590613 0.98926 1.26171C-0.330531 2.60391 -0.328975 4.77472 0.98926 6.11795L6.30755 11.5423C6.33648 11.572 6.37093 11.5956 6.4089 11.6117C6.44687 11.6278 6.4876 11.6361 6.52874 11.6361C6.56988 11.6361 6.61061 11.6278 6.64857 11.6117C6.68654 11.5956 6.72099 11.572 6.74992 11.5423C8.52478 9.73734 10.2983 7.9328 12.0731 6.12783C13.3929 4.78563 13.3929 2.60885 12.0731 1.26665C10.7533 -0.0755455 8.6142 -0.0755613 7.29439 1.26665L6.53117 2.03733L5.76795 1.26171C5.10804 0.590614 4.24574 0.253906 3.38103 0.253906ZM3.38103 0.881314C4.08467 0.881314 4.78369 1.15527 5.32556 1.70633L6.31242 2.70919C6.34135 2.73891 6.3758 2.76251 6.41377 2.77861C6.45173 2.79471 6.49247 2.803 6.5336 2.803C6.57474 2.803 6.61548 2.79471 6.65344 2.77861C6.69141 2.76251 6.72586 2.73891 6.75479 2.70919L7.73193 1.71127C8.81565 0.609126 10.547 0.609145 11.6307 1.71127C12.7144 2.8134 12.7144 4.57614 11.6307 5.67828C9.93041 7.40745 8.23148 9.13633 6.53117 10.8655L1.43165 5.67333C0.348717 4.56987 0.347908 2.80846 1.43165 1.70633C1.9735 1.15527 2.67739 0.881314 3.38103 0.881314Z" fill="black"/>
</svg>
