<svg width="14" height="15" viewBox="0 0 14 15" fill="none" xmlns="http://www.w3.org/2000/svg">
<path d="M13.8884 13.5502L10.1797 9.84137C12.0948 7.708 12.0272 4.41367 9.9763 2.36292C8.94867 1.33527 7.58267 0.769531 6.12949 0.769531C4.67646 0.769531 3.31018 1.33527 2.28282 2.36292C1.25519 3.39029 0.689453 4.75644 0.689453 6.20963C0.689453 7.66269 1.25519 9.02898 2.28282 10.0566C3.31018 11.084 4.67646 11.65 6.12949 11.65C7.48351 11.65 8.76165 11.1584 9.76119 10.2598L13.4701 13.9685C13.5278 14.0265 13.6036 14.0552 13.6793 14.0552C13.7551 14.0552 13.8307 14.0265 13.8885 13.9685C14.0041 13.8532 14.0041 13.6656 13.8884 13.5502ZM6.12963 11.0582C4.83455 11.0582 3.61687 10.5538 2.7012 9.6381C1.78539 8.72215 1.28108 7.50445 1.28108 6.20963C1.28108 4.91454 1.78553 3.69699 2.7012 2.78117C3.61701 1.86535 4.83455 1.36103 6.12963 1.36103C7.42457 1.36103 8.64225 1.86548 9.55806 2.78117C11.4486 4.67161 11.4486 7.74752 9.55806 9.6381C8.64225 10.5538 7.42457 11.0582 6.12963 11.0582Z" fill="#949494"/>
</svg>
